<svg xmlns="http://www.w3.org/2000/svg" width="1120" height="420" viewBox="0 0 1120 420">
  <style>
    .box{fill:#f8fafc;stroke:#334155;stroke-width:1.4;rx:8}
    .core{fill:#ecfeff;stroke:#0e7490}
    .txt{font:16px sans-serif;fill:#0f172a}
    .small{font:13px sans-serif;fill:#475569}
    .arrow{stroke:#334155;stroke-width:2;marker-end:url(#a)}
  </style>
  <defs>
    <marker id="a" markerWidth="10" markerHeight="10" refX="9" refY="3" orient="auto" markerUnits="strokeWidth">
      <path d="M0,0 L0,6 L9,3 z" fill="#334155"/>
    </marker>
  </defs>
  <rect class="box" x="40" y="50" width="170" height="72"/>
  <text class="txt" x="72" y="82">FX GraphModule</text>
  <text class="small" x="67" y="105">gm + example_inputs</text>
  <line class="arrow" x1="210" y1="86" x2="280" y2="86"/>
  <rect class="box" x="280" y="50" width="185" height="72"/>
  <text class="txt" x="314" y="82">compile_fx</text>
  <text class="small" x="304" y="105">cache, AOT, configs</text>
  <line class="arrow" x1="465" y1="86" x2="535" y2="86"/>
  <rect class="box core" x="535" y="50" width="205" height="72"/>
  <text class="txt" x="575" y="82">GraphLowering</text>
  <text class="small" x="568" y="105">FX Interpreter -> IR</text>
  <line class="arrow" x1="637" y1="122" x2="637" y2="180"/>
  <rect class="box core" x="535" y="180" width="205" height="72"/>
  <text class="txt" x="582" y="212">Scheduler</text>
  <text class="small" x="562" y="235">deps, fusion, ordering</text>
  <line class="arrow" x1="740" y1="216" x2="810" y2="216"/>
  <rect class="box" x="810" y="180" width="225" height="72"/>
  <text class="txt" x="858" y="212">Codegen</text>
  <text class="small" x="839" y="235">Triton / C++ / wrapper</text>
  <line class="arrow" x1="922" y1="252" x2="922" y2="310"/>
  <rect class="box" x="810" y="310" width="225" height="72"/>
  <text class="txt" x="851" y="342">Code Cache</text>
  <text class="small" x="847" y="365">compile, load, execute</text>
  <line class="arrow" x1="535" y1="216" x2="440" y2="216"/>
  <rect class="box" x="220" y="180" width="220" height="72"/>
  <text class="txt" x="255" y="212">IR Nodes</text>
  <text class="small" x="242" y="235">TensorBox, Buffer, Loops</text>
</svg>

