<svg xmlns="http://www.w3.org/2000/svg" width="1080" height="380" viewBox="0 0 1080 380">
  <style>
    .box{fill:#f8fafc;stroke:#334155;stroke-width:1.4;rx:8}
    .hot{fill:#eff6ff;stroke:#2563eb}
    .txt{font:16px sans-serif;fill:#0f172a}
    .small{font:13px sans-serif;fill:#475569}
    .arrow{stroke:#334155;stroke-width:2;marker-end:url(#a)}
  </style>
  <defs><marker id="a" markerWidth="10" markerHeight="10" refX="9" refY="3" orient="auto"><path d="M0,0 L0,6 L9,3 z" fill="#334155"/></marker></defs>
  <rect class="box" x="40" y="80" width="160" height="72"/><text class="txt" x="78" y="113">FX Node</text><text class="small" x="67" y="136">aten.add.Tensor</text>
  <line class="arrow" x1="200" y1="116" x2="270" y2="116"/>
  <rect class="hot" x="270" y="80" width="180" height="72"/><text class="txt" x="320" y="113">lowering</text><text class="small" x="302" y="136">lowering.py registry</text>
  <line class="arrow" x1="450" y1="116" x2="520" y2="116"/>
  <rect class="box" x="520" y="80" width="170" height="72"/><text class="txt" x="565" y="113">IR</text><text class="small" x="544" y="136">TensorBox / Loops</text>
  <line class="arrow" x1="690" y1="116" x2="760" y2="116"/>
  <rect class="hot" x="760" y="80" width="190" height="72"/><text class="txt" x="812" y="113">Scheduler</text><text class="small" x="788" y="136">dependencies + fusion</text>
  <line class="arrow" x1="855" y1="152" x2="855" y2="220"/>
  <rect class="box" x="760" y="220" width="190" height="72"/><text class="txt" x="808" y="253">Kernel Group</text><text class="small" x="790" y="276">codegen target chooses</text>
  <line class="arrow" x1="760" y1="256" x2="620" y2="256"/>
  <rect class="box" x="430" y="220" width="190" height="72"/><text class="txt" x="477" y="253">Wrapper</text><text class="small" x="462" y="276">allocation + calls</text>
</svg>

